HIERARCHY
ROOT newVegas:Hips
{
	OFFSET 0.000000 96.479958 0.000000
	CHANNELS 6 Xposition Yposition Zposition Xrotation Yrotation Zrotation
	JOINT newVegas:Pelvis
	{
		OFFSET 0.000000 0.000000 0.000000
		CHANNELS 3 Xrotation Yrotation Zrotation
		JOINT newVegas:LeftUpLeg
		{
			OFFSET 18.735201 -5.666702 -4.541200
			CHANNELS 3 Xrotation Yrotation Zrotation
			JOINT newVegas:LeftLeg
			{
				OFFSET -0.021200 -31.938179 0.493100
				CHANNELS 3 Xrotation Yrotation Zrotation
				JOINT newVegas:LeftFoot
				{
					OFFSET 0.021200 -31.938179 -4.336299
					CHANNELS 3 Xrotation Yrotation Zrotation
					JOINT newVegas:LeftToeBase
					{
						OFFSET 0.943001 -26.722000 15.023500
						CHANNELS 3 Xrotation Yrotation Zrotation
						End Site
						{
							OFFSET 0.000000 30.670183 0.000000
						}
					}
				}
				JOINT newVegas:Left_PantLeg
				{
					OFFSET 0.663870 -9.044666 -1.108900
					CHANNELS 3 Xrotation Yrotation Zrotation
					End Site
					{
						OFFSET 1.415995 20.635357 0.000000
					}
				}
			}
		}
		JOINT newVegas:RightUpLeg
		{
			OFFSET -18.735201 -5.666702 -4.541200
			CHANNELS 3 Xrotation Yrotation Zrotation
			JOINT newVegas:RightLeg
			{
				OFFSET 0.018946 -31.938133 0.493100
				CHANNELS 3 Xrotation Yrotation Zrotation
				JOINT newVegas:RightFoot
				{
					OFFSET -0.018946 -31.938126 -4.336299
					CHANNELS 3 Xrotation Yrotation Zrotation
					JOINT newVegas:RightToeBase
					{
						OFFSET -0.943001 -26.722004 15.023500
						CHANNELS 3 Xrotation Yrotation Zrotation
						End Site
						{
							OFFSET 0.000000 30.670187 0.000000
						}
					}
				}
				JOINT newVegas:Right_PantLeg
				{
					OFFSET -0.661674 -9.044716 -1.108900
					CHANNELS 3 Xrotation Yrotation Zrotation
					End Site
					{
						OFFSET -1.415958 20.635269 0.000000
					}
				}
			}
		}
	}
	JOINT newVegas:Spine
	{
		OFFSET 0.000000 10.199997 -0.299500
		CHANNELS 3 Xrotation Yrotation Zrotation
		JOINT newVegas:Spine1
		{
			OFFSET 0.000000 11.900002 -1.516600
			CHANNELS 3 Xrotation Yrotation Zrotation
			JOINT newVegas:Spine2
			{
				OFFSET 0.000000 13.600006 -2.842500
				CHANNELS 3 Xrotation Yrotation Zrotation
				JOINT newVegas:Neck
				{
					OFFSET 0.000000 9.624100 -2.890100
					CHANNELS 3 Xrotation Yrotation Zrotation
					JOINT newVegas:Head
					{
						OFFSET 0.000000 14.068802 -1.351900
						CHANNELS 3 Xrotation Yrotation Zrotation
						JOINT newVegas:Hair_Back
						{
							OFFSET 0.000000 3.231903 -17.524799
							CHANNELS 3 Xrotation Yrotation Zrotation
							End Site
							{
								OFFSET 0.000000 19.849884 0.000000
							}
						}
						JOINT newVegas:Hair_Front
						{
							OFFSET 0.000000 31.260406 4.573800
							CHANNELS 3 Xrotation Yrotation Zrotation
							JOINT newVegas:Hair_Front1
							{
								OFFSET 0.000000 2.284103 11.993300
								CHANNELS 3 Xrotation Yrotation Zrotation
								JOINT newVegas:Hair_Front2
								{
									OFFSET 0.000000 2.284103 11.993300
									CHANNELS 3 Xrotation Yrotation Zrotation
									End Site
									{
										OFFSET 0.000000 12.208862 0.000000
									}
								}
							}
						}
						JOINT newVegas:Jowel
						{
							OFFSET 0.000000 -7.458206 6.864100
							CHANNELS 3 Xrotation Yrotation Zrotation
							End Site
							{
								OFFSET 0.000000 19.849884 0.000000
							}
						}
					}
				}
				JOINT newVegas:LeftShoulder
				{
					OFFSET 15.263000 10.923401 -0.547700
					CHANNELS 3 Xrotation Yrotation Zrotation
					JOINT newVegas:LeftArm
					{
						OFFSET 25.438599 -2.830597 -13.032500
						CHANNELS 3 Xrotation Yrotation Zrotation
						JOINT newVegas:LeftForeArm
						{
							OFFSET 29.960503 0.000000 0.000000
							CHANNELS 3 Xrotation Yrotation Zrotation
							JOINT newVegas:LeftHand
							{
								OFFSET 27.849251 0.000000 0.000000
								CHANNELS 3 Xrotation Yrotation Zrotation
								JOINT newVegas:LeftHandThumb1
								{
									OFFSET 4.487587 -3.305161 6.305391
									CHANNELS 3 Xrotation Yrotation Zrotation
									JOINT newVegas:LeftHandThumb2
									{
										OFFSET 5.480453 -3.164139 3.164143
										CHANNELS 3 Xrotation Yrotation Zrotation
										JOINT newVegas:LeftHandThumb3
										{
											OFFSET 5.159721 -2.978973 2.978967
											CHANNELS 3 Xrotation Yrotation Zrotation
											End Site
											{
												OFFSET 2.494507 5.926697 1.738678
											}
										}
									}
								}
								JOINT newVegas:LeftHandIndex1
								{
									OFFSET 18.578728 -0.527832 5.208049
									CHANNELS 3 Xrotation Yrotation Zrotation
									JOINT newVegas:LeftHandIndex2
									{
										OFFSET 3.192009 0.000000 0.000000
										CHANNELS 3 Xrotation Yrotation Zrotation
										JOINT newVegas:LeftHandIndex3
										{
											OFFSET 3.835129 0.000000 0.000000
											CHANNELS 3 Xrotation Yrotation Zrotation
											End Site
											{
												OFFSET -0.034599 3.816971 0.371180
											}
										}
									}
								}
								JOINT newVegas:LeftHandMiddle1
								{
									OFFSET 18.476105 0.000000 0.000000
									CHANNELS 3 Xrotation Yrotation Zrotation
									JOINT newVegas:LeftHandMiddle2
									{
										OFFSET 3.324875 0.000000 0.000000
										CHANNELS 3 Xrotation Yrotation Zrotation
										JOINT newVegas:LeftHandMiddle3
										{
											OFFSET 4.596550 0.000000 0.000000
											CHANNELS 3 Xrotation Yrotation Zrotation
											End Site
											{
												OFFSET 0.057701 4.578827 0.399218
											}
										}
									}
								}
								JOINT newVegas:LeftHandRing1
								{
									OFFSET 17.732719 0.121887 -4.201567
									CHANNELS 3 Xrotation Yrotation Zrotation
									JOINT newVegas:LeftHandRing2
									{
										OFFSET 2.733170 0.000000 0.000000
										CHANNELS 3 Xrotation Yrotation Zrotation
										JOINT newVegas:LeftHandRing3
										{
											OFFSET 3.178268 0.000000 0.000000
											CHANNELS 3 Xrotation Yrotation Zrotation
											End Site
											{
												OFFSET 0.119102 3.170624 0.185394
											}
										}
									}
								}
								JOINT newVegas:LeftHandPinky1
								{
									OFFSET 15.989624 -0.606689 -7.535461
									CHANNELS 3 Xrotation Yrotation Zrotation
									JOINT newVegas:LeftHandPinky2
									{
										OFFSET 2.538986 0.000000 0.000000
										CHANNELS 3 Xrotation Yrotation Zrotation
										JOINT newVegas:LeftHandPinky3
										{
											OFFSET 2.593102 0.000000 0.000000
											CHANNELS 3 Xrotation Yrotation Zrotation
											End Site
											{
												OFFSET -0.150902 2.584198 0.152708
											}
										}
									}
								}
							}
							JOINT newVegas:Left_Sleeve
							{
								OFFSET 0.267448 -0.649796 0.577675
								CHANNELS 3 Xrotation Yrotation Zrotation
								End Site
								{
									OFFSET 0.000000 15.991241 0.000000
								}
							}
							JOINT newVegas:Left_CapeC
							{
								OFFSET 15.715958 -8.608795 -6.935905
								CHANNELS 3 Xrotation Yrotation Zrotation
								JOINT newVegas:Left_CapeC1
								{
									OFFSET 0.000000 -8.688499 0.000000
									CHANNELS 3 Xrotation Yrotation Zrotation
									End Site
									{
										OFFSET 0.000000 8.688499 0.000000
									}
								}
							}
						}
						JOINT newVegas:Left_CapeB
						{
							OFFSET 26.118385 -8.608795 -7.079235
							CHANNELS 3 Xrotation Yrotation Zrotation
							JOINT newVegas:Left_CapeB1
							{
								OFFSET 0.000000 -8.688499 0.000000
								CHANNELS 3 Xrotation Yrotation Zrotation
								End Site
								{
									OFFSET 0.000000 8.688499 0.000000
								}
							}
						}
						JOINT newVegas:Left_CapeA
						{
							OFFSET 5.115639 -8.608795 -10.395809
							CHANNELS 3 Xrotation Yrotation Zrotation
							JOINT newVegas:Left_CapeA1
							{
								OFFSET 0.000000 -8.688499 0.000000
								CHANNELS 3 Xrotation Yrotation Zrotation
								End Site
								{
									OFFSET 0.000000 8.688499 0.000000
								}
							}
						}
					}
				}
				JOINT newVegas:RightShoulder
				{
					OFFSET -15.263000 10.923401 -0.547700
					CHANNELS 3 Xrotation Yrotation Zrotation
					JOINT newVegas:RightArm
					{
						OFFSET -25.438599 -2.830597 -13.032500
						CHANNELS 3 Xrotation Yrotation Zrotation
						JOINT newVegas:RightForeArm
						{
							OFFSET -29.960503 0.000000 0.000000
							CHANNELS 3 Xrotation Yrotation Zrotation
							JOINT newVegas:RightHand
							{
								OFFSET -27.849251 0.000000 0.000000
								CHANNELS 3 Xrotation Yrotation Zrotation
								JOINT newVegas:RightHandThumb1
								{
									OFFSET -4.487587 -3.305161 6.305391
									CHANNELS 3 Xrotation Yrotation Zrotation
									JOINT newVegas:RightHandThumb2
									{
										OFFSET -5.480453 -3.164139 3.164143
										CHANNELS 3 Xrotation Yrotation Zrotation
										JOINT newVegas:RightHandThumb3
										{
											OFFSET -5.159721 -2.978973 2.978967
											CHANNELS 3 Xrotation Yrotation Zrotation
											End Site
											{
												OFFSET -2.494507 5.926697 1.738678
											}
										}
									}
								}
								JOINT newVegas:RightHandIndex1
								{
									OFFSET -18.578728 -0.527832 5.208049
									CHANNELS 3 Xrotation Yrotation Zrotation
									JOINT newVegas:RightHandIndex2
									{
										OFFSET -3.192009 0.000000 0.000000
										CHANNELS 3 Xrotation Yrotation Zrotation
										JOINT newVegas:RightHandIndex3
										{
											OFFSET -3.835129 0.000000 0.000000
											CHANNELS 3 Xrotation Yrotation Zrotation
											End Site
											{
												OFFSET 0.034599 3.816971 0.371180
											}
										}
									}
								}
								JOINT newVegas:RightHandMiddle1
								{
									OFFSET -18.476105 0.000000 0.000000
									CHANNELS 3 Xrotation Yrotation Zrotation
									JOINT newVegas:RightHandMiddle2
									{
										OFFSET -3.324875 0.000000 0.000000
										CHANNELS 3 Xrotation Yrotation Zrotation
										JOINT newVegas:RightHandMiddle3
										{
											OFFSET -4.596550 0.000000 0.000000
											CHANNELS 3 Xrotation Yrotation Zrotation
											End Site
											{
												OFFSET -0.057701 4.578827 0.399218
											}
										}
									}
								}
								JOINT newVegas:RightHandRing1
								{
									OFFSET -17.732719 0.121887 -4.201567
									CHANNELS 3 Xrotation Yrotation Zrotation
									JOINT newVegas:RightHandRing2
									{
										OFFSET -2.733170 0.000000 0.000000
										CHANNELS 3 Xrotation Yrotation Zrotation
										JOINT newVegas:RightHandRing3
										{
											OFFSET -3.178268 0.000000 0.000000
											CHANNELS 3 Xrotation Yrotation Zrotation
											End Site
											{
												OFFSET -0.119102 3.170624 0.185394
											}
										}
									}
								}
								JOINT newVegas:RightHandPinky1
								{
									OFFSET -15.989624 -0.606689 -7.535461
									CHANNELS 3 Xrotation Yrotation Zrotation
									JOINT newVegas:RightHandPinky2
									{
										OFFSET -2.538986 0.000000 0.000000
										CHANNELS 3 Xrotation Yrotation Zrotation
										JOINT newVegas:RightHandPinky3
										{
											OFFSET -2.593102 0.000000 0.000000
											CHANNELS 3 Xrotation Yrotation Zrotation
											End Site
											{
												OFFSET 0.150902 2.584198 0.152708
											}
										}
									}
								}
							}
							JOINT newVegas:Right_CapeC
							{
								OFFSET -15.715958 -8.608795 -6.935905
								CHANNELS 3 Xrotation Yrotation Zrotation
								JOINT newVegas:Right_CapeC1
								{
									OFFSET 0.000000 -8.688499 0.000000
									CHANNELS 3 Xrotation Yrotation Zrotation
									End Site
									{
										OFFSET 0.000000 8.688499 0.000000
									}
								}
							}
							JOINT newVegas:Right_Sleeve
							{
								OFFSET -0.267448 -0.649994 0.577675
								CHANNELS 3 Xrotation Yrotation Zrotation
								End Site
								{
									OFFSET 0.000000 15.991302 0.000000
								}
							}
						}
						JOINT newVegas:Right_CapeA
						{
							OFFSET -5.115540 -8.608795 -10.395824
							CHANNELS 3 Xrotation Yrotation Zrotation
							JOINT newVegas:Right_CapeA1
							{
								OFFSET 0.000000 -8.688499 0.000000
								CHANNELS 3 Xrotation Yrotation Zrotation
								End Site
								{
									OFFSET 0.000000 8.688499 0.000000
								}
							}
						}
						JOINT newVegas:Right_CapeB
						{
							OFFSET -26.118187 -8.608795 -7.079266
							CHANNELS 3 Xrotation Yrotation Zrotation
							JOINT newVegas:Right_CapeB1
							{
								OFFSET 0.000000 -8.688499 0.000000
								CHANNELS 3 Xrotation Yrotation Zrotation
								End Site
								{
									OFFSET 0.000000 8.688499 0.000000
								}
							}
						}
					}
				}
				JOINT newVegas:Left_Collar
				{
					OFFSET 18.625099 8.655502 8.828100
					CHANNELS 3 Xrotation Yrotation Zrotation
					JOINT newVegas:Left_Collar1
					{
						OFFSET 14.783401 10.540405 -1.259500
						CHANNELS 3 Xrotation Yrotation Zrotation
						End Site
						{
							OFFSET 0.000000 18.199875 0.000000
						}
					}
				}
				JOINT newVegas:Collar_Back
				{
					OFFSET 0.000000 15.630707 -20.132601
					CHANNELS 3 Xrotation Yrotation Zrotation
					End Site
					{
						OFFSET 0.000000 22.523010 0.000000
					}
				}
				JOINT newVegas:Left_Peck
				{
					OFFSET 17.239599 -5.132599 25.482599
					CHANNELS 3 Xrotation Yrotation Zrotation
					End Site
					{
						OFFSET 0.000000 22.523010 0.000000
					}
				}
				JOINT newVegas:Right_Peck
				{
					OFFSET -17.239599 -5.132202 25.482599
					CHANNELS 3 Xrotation Yrotation Zrotation
					End Site
					{
						OFFSET 0.000000 22.523010 0.000000
					}
				}
				JOINT newVegas:Right_Collar
				{
					OFFSET -18.625099 8.655792 8.828100
					CHANNELS 3 Xrotation Yrotation Zrotation
					JOINT newVegas:Right_Collar1
					{
						OFFSET -14.783401 10.539993 -1.259500
						CHANNELS 3 Xrotation Yrotation Zrotation
						End Site
						{
							OFFSET 0.000000 18.199631 0.000000
						}
					}
				}
			}
		}
		JOINT newVegas:Belly
		{
			OFFSET 0.000000 -6.540398 9.014299
			CHANNELS 3 Xrotation Yrotation Zrotation
			End Site
			{
				OFFSET 0.000000 11.566666 0.000000
			}
		}
	}
	JOINT newVegas:ElvisFacialAnim_Joint
	{
		OFFSET 1.000000 -95.330101 -8.825800
		CHANNELS 3 Xrotation Yrotation Zrotation
		End Site
		{
			OFFSET 0.000000 35.315800 0.000000
		}
	}
}
MOTION
Frames: 4
Frame Time: 0.033333
-2.289543 92.652855 2.706747 -16.899102 -38.956937 -9.300477 -0.000000 0.000001 -0.000000 -21.726854 41.891637 31.794940 29.210568 -0.836186 -0.990759 -2.656353 1.935981 -6.156925 -0.000000 0.000000 0.000000 0.000000 -0.000000 -0.000000 6.384825 5.351069 -7.010963 33.002388 0.100169 1.181724 -24.499001 -18.001665 5.269213 -0.000000 0.000000 0.000000 0.000001 0.000003 -0.000002 7.991399 -0.090019 -0.225205 16.413452 -0.125518 -0.745993 16.413517 -0.192915 -0.721093 0.160369 2.999851 0.240073 0.160340 2.999863 0.240071 -0.000001 -0.000001 -0.000000 0.160285 2.999876 0.240074 0.160449 2.999841 0.240074 -0.000004 0.000000 0.000000 -0.000001 -0.000001 0.000000 -37.571078 -4.822523 1.545824 -41.628422 -7.015791 -61.684374 0.000060 -64.995903 0.000069 -119.359646 1.120085 32.550243 4.709226 9.560366 3.111986 19.473189 -1.474912 7.636924 -0.000000 0.000001 -0.000003 -0.212824 3.933702 -36.747135 2.942145 5.078908 -60.144583 -0.000000 -0.000001 -0.000001 0.405915 5.507017 -52.453165 3.387133 5.308599 -65.057484 -0.000003 -0.000001 0.000000 -0.074380 5.736753 -61.061413 4.055034 5.569507 -72.094921 0.000003 -0.000002 -0.000002 -6.565555 4.545151 -72.425229 3.299622 5.267190 -64.107848 -0.000000 -0.000003 -0.000002 0.000000 0.000001 -0.000001 0.000000 0.000001 -0.000001 0.000000 0.000002 -0.000001 0.000001 -0.000001 -0.000003 0.000000 -0.000001 -0.000003 0.000001 -0.000001 -0.000003 -0.000001 -0.000002 -0.000002 -41.176308 -8.605646 -9.942314 -46.819717 58.242983 100.948734 0.001172 98.442868 -0.001167 -52.463130 -17.216586 -29.273108 8.377133 -4.904133 11.022015 21.620173 -18.183939 -18.379245 0.000006 0.000003 -0.000000 -0.920034 1.683582 12.434980 0.748122 -2.533474 32.898296 0.000000 -0.000000 -0.000000 3.413068 -7.186243 51.650270 6.296794 -4.359580 110.634667 0.000001 -0.000000 0.000001 -3.349036 -2.600406 57.010568 5.440861 -4.590883 99.698147 -0.000001 0.000001 -0.000001 -3.996424 -3.303960 64.593864 4.058830 -4.618642 82.610523 -0.000003 0.000003 -0.000000 -0.000001 -0.000001 0.000002 0.000000 0.000001 -0.000000 -0.000001 -0.000001 0.000002 0.000002 0.000003 -0.000002 0.000002 0.000003 -0.000004 0.000002 0.000003 -0.000002 0.000002 0.000003 -0.000002 -0.000002 0.000002 -0.000000 -0.000002 0.000002 -0.000000 -0.000002 0.000002 -0.000000 -0.000002 0.000002 -0.000000 -0.000002 0.000002 -0.000000 -0.000002 0.000002 -0.000000 -0.000002 0.000002 -0.000000 0.000000 0.000001 -0.000000 -0.000000 0.000001 -0.000000 
-2.378219 92.677536 2.680574 -16.529481 -38.984104 -9.092505 0.000001 0.000001 -0.000000 -21.730875 41.624597 31.388944 28.939880 -0.694574 -0.629836 -2.451368 2.111671 -6.465136 -0.000000 -0.000000 -0.000000 0.000001 -0.000001 0.000000 6.353039 5.329968 -6.809655 32.613511 0.119094 1.176343 -24.627188 -18.189755 4.905566 0.000000 0.000001 0.000000 0.000000 -0.000000 -0.000002 7.675606 -0.018486 -0.334929 16.244505 -0.097131 -0.847519 16.245386 -0.174187 -0.831139 0.107455 2.998597 0.248122 0.107454 2.998580 0.248127 0.000002 0.000001 -0.000001 0.107454 2.998581 0.248129 0.107449 2.998596 0.248128 -0.000002 0.000000 -0.000001 0.000002 0.000001 -0.000001 -37.550095 -5.005722 2.118288 -40.687963 -5.975992 -61.403230 0.000040 -66.192640 0.000005 -119.523898 0.584624 32.466567 4.709111 9.560375 3.112006 19.473300 -1.474851 7.636874 0.000004 0.000001 -0.000004 -0.212866 3.933638 -36.747169 2.942134 5.078903 -60.144569 -0.000001 -0.000000 0.000000 0.405914 5.507018 -52.453080 3.387130 5.308600 -65.057531 -0.000003 0.000000 0.000001 -0.074377 5.736751 -61.061420 4.055038 5.569498 -72.094894 0.000001 -0.000001 -0.000001 -6.565464 4.545169 -72.425215 3.299620 5.267191 -64.107848 -0.000002 -0.000005 -0.000004 -0.000000 0.000005 -0.000000 -0.000000 0.000005 -0.000000 -0.000001 0.000006 0.000000 0.000000 0.000002 0.000000 -0.000000 0.000002 -0.000001 0.000000 0.000002 0.000000 -0.000002 0.000001 0.000001 -41.097661 -8.983245 -9.956518 -47.429493 57.907833 102.322968 -0.001134 97.931457 0.001107 -51.707285 -17.453210 -27.337105 33.394574 24.413980 3.694148 24.958823 -13.629187 -15.963974 -0.000002 0.000000 -0.000000 -1.891609 4.211982 15.588845 0.378445 -1.840657 23.234596 -0.000000 0.000000 -0.000001 2.852230 -6.888378 47.545603 5.599813 -4.560953 101.690561 0.000001 0.000000 -0.000001 -2.826502 -2.173589 51.044603 5.095818 -4.636489 95.410530 0.000001 -0.000001 -0.000002 -3.530725 -2.720307 58.702027 4.006767 -4.611604 81.963677 -0.000001 -0.000000 0.000003 0.000003 -0.000001 -0.000001 0.000004 -0.000003 -0.000001 0.000003 -0.000001 -0.000000 -0.000001 -0.000001 0.000002 -0.000001 0.000000 0.000002 -0.000001 -0.000001 0.000002 -0.000000 0.000000 0.000003 0.000002 -0.000001 0.000001 0.000002 -0.000001 0.000001 0.000002 -0.000001 0.000001 0.000002 -0.000001 0.000001 0.000002 -0.000001 0.000001 0.000002 -0.000001 0.000001 0.000002 -0.000001 0.000001 -0.000000 -0.000002 -0.000000 0.000001 0.000001 -0.000000 
-2.565978 92.721184 2.634472 -16.100650 -38.943194 -8.801938 0.000000 -0.000003 -0.000000 -21.566245 41.290932 30.774005 28.394905 -0.471734 -0.123951 -2.053738 2.260564 -6.930638 0.000000 -0.000000 -0.000000 -0.000000 0.000001 -0.000000 6.432267 5.214143 -6.558905 32.077447 0.205442 1.196052 -24.855499 -18.420429 4.346411 -0.000000 0.000001 0.000000 0.000001 -0.000002 0.000000 7.151285 -0.082566 -0.534916 16.044143 -0.093258 -1.031251 16.046046 -0.193770 -1.021952 0.008495 3.030031 0.198691 0.008535 3.030017 0.198695 0.000003 0.000003 -0.000002 0.008656 3.030036 0.198681 0.008423 3.030032 0.198691 -0.000003 -0.000000 -0.000000 0.000003 0.000003 -0.000001 -37.430331 -4.477242 3.023494 -39.859662 -4.759310 -61.298284 0.000058 -67.499686 0.000073 -119.225515 0.209792 32.446995 4.709002 9.560417 3.112020 19.473388 -1.474799 7.636816 0.000001 0.000006 -0.000002 -0.212919 3.933598 -36.747210 2.942134 5.078912 -60.144515 0.000002 -0.000001 -0.000000 0.405905 5.507007 -52.453025 3.387152 5.308604 -65.057572 -0.000002 -0.000002 -0.000001 -0.074379 5.736751 -61.061413 4.055028 5.569508 -72.094853 0.000001 -0.000000 -0.000002 -6.565371 4.545214 -72.425222 3.299626 5.267197 -64.107848 0.000001 -0.000002 -0.000000 -0.000000 0.000002 -0.000002 -0.000000 0.000002 -0.000002 -0.000000 0.000003 -0.000002 -0.000001 -0.000001 0.000000 -0.000002 -0.000001 0.000001 -0.000001 -0.000001 0.000000 -0.000001 -0.000002 0.000001 -40.827907 -9.600054 -9.678805 -47.967145 57.441372 103.860499 -0.000386 95.329073 0.000337 -53.675718 -15.587550 -21.640486 44.767286 39.522914 6.095852 25.783973 -8.255200 -14.167886 0.000004 -0.000003 0.000003 -3.848258 1.343528 37.215430 0.096406 -0.943789 11.667020 0.000000 -0.000001 -0.000000 3.969876 -7.550942 52.898248 4.548775 -4.655918 88.664967 0.000000 0.000000 -0.000003 -1.986425 -2.655744 49.209604 4.712850 -4.656835 90.686109 -0.000001 -0.000001 0.000000 -1.866013 -3.226665 53.638080 3.637854 -4.544469 77.344120 0.000000 0.000005 -0.000002 0.000004 0.000001 0.000001 0.000002 -0.000000 0.000001 0.000004 0.000001 0.000000 -0.000001 -0.000001 0.000001 -0.000001 0.000000 0.000002 -0.000001 -0.000001 0.000001 -0.000001 0.000000 0.000004 0.000003 0.000000 -0.000001 0.000003 0.000000 -0.000001 0.000003 0.000000 -0.000001 0.000003 0.000000 -0.000001 0.000003 0.000000 -0.000001 0.000003 0.000000 -0.000001 0.000003 0.000000 -0.000001 0.000000 0.000001 0.000000 0.000000 -0.000003 -0.000000 
-2.867380 92.775803 2.575920 -15.584110 -38.852513 -8.442824 -0.000001 0.000001 0.000000 -21.387689 40.969302 30.186612 27.636503 -0.208200 0.391308 -1.502816 2.297393 -7.477264 -0.000000 0.000001 0.000000 0.000000 0.000001 -0.000000 6.520616 5.054055 -6.241833 31.480533 0.346668 1.229075 -25.066270 -18.682867 3.721002 -0.000000 0.000001 0.000000 0.000001 -0.000001 0.000000 6.382675 -0.078736 -0.691322 15.793865 -0.067395 -1.105270 15.793752 -0.194187 -1.097836 -0.099517 3.156955 -0.092249 -0.099509 3.156957 -0.092257 0.000002 0.000002 -0.000001 -0.099507 3.156951 -0.092242 -0.099443 3.156961 -0.092255 -0.000001 0.000001 -0.000001 0.000002 0.000002 -0.000001 -37.123714 -2.863795 2.694416 -39.693569 -4.392336 -60.821844 0.000121 -68.189310 0.000111 -118.489015 0.422224 32.413373 4.708892 9.560437 3.112032 19.473503 -1.474724 7.636765 0.000002 -0.000006 -0.000000 -0.212966 3.933518 -36.747275 2.942122 5.078904 -60.144460 0.000002 -0.000000 -0.000001 0.405907 5.507018 -52.452953 3.387166 5.308622 -65.057634 0.000001 0.000001 -0.000002 -0.074379 5.736756 -61.061413 4.055033 5.569492 -72.094832 -0.000001 -0.000001 -0.000001 -6.565278 4.545245 -72.425229 3.299627 5.267196 -64.107848 -0.000000 -0.000005 -0.000000 0.000001 -0.000002 0.000001 0.000001 -0.000002 0.000001 -0.000000 -0.000002 0.000001 -0.000001 -0.000002 -0.000002 -0.000001 -0.000003 -0.000001 -0.000001 -0.000002 -0.000002 -0.000001 -0.000003 -0.000001 -40.554262 -10.305246 -9.876933 -45.200201 57.544371 103.381634 0.002072 89.334599 -0.001820 -61.782531 -9.279694 -14.483601 26.469701 46.030240 25.778664 24.085924 -2.122137 -12.929906 0.000000 -0.000001 -0.000002 -3.997792 -0.683802 47.993919 0.245929 -1.494821 18.683417 -0.000001 0.000001 -0.000001 2.650268 -6.814028 44.744002 5.031569 -4.642110 94.616322 0.000001 0.000001 0.000003 -1.035221 -2.543946 38.502009 4.273320 -4.641329 85.266886 0.000000 0.000001 0.000002 -0.944126 -3.110444 43.697689 3.260734 -4.443308 72.533809 0.000001 -0.000002 0.000000 -0.000001 0.000001 0.000003 0.000001 0.000001 0.000000 -0.000001 0.000000 0.000001 -0.000002 -0.000003 0.000002 -0.000002 -0.000002 0.000002 -0.000002 -0.000003 0.000002 -0.000002 -0.000002 0.000004 -0.000000 -0.000001 0.000000 -0.000000 -0.000001 0.000000 -0.000000 -0.000001 0.000000 -0.000000 -0.000001 0.000000 -0.000000 -0.000001 0.000000 -0.000000 -0.000001 0.000000 -0.000000 -0.000001 0.000000 -0.000000 0.000001 0.000000 -0.000001 0.000001 0.000000 
